:FULLY-SPECIFIED
:FORCE-ALL-JOINTS-BE-3DOF
:DEGREES
1
root 6.24314 16.836 -28.1378 9.0217 -2.52979 -3.05774
lfemur -20.3712 2.30257 -19.9954
ltibia 35.927 0 0
lfoot -38.654 3.93715 0
ltoes 38.9541 0 0
rfemur -19.4747 0.22019 19.5256
rtibia 36.0342 0 0
rfoot -30.3779 -10.4967 0
rtoes 21.4483 0 0
lowerback -2.05144 3.66971 -5.03766
upperback -2.66728 5.00355 3.49279
thorax -2.36397 2.67023 6.42441
lowerneck -9.84699 -2.36864 1.94815
upperneck -1.37933 -3.32542 -1.65382
head 1.16433 -1.69823 -0.975663
lclavicle -1.65488e-014 -3.69739e-014 0
lhumerus -41.7253 -10.8128 99.8312
lradius 34.5094 0 0
lwrist 2.17521 0 0
lhand -10.5949 9.65639 0
lfingers 7.12502 0 0
lthumb 15.4107 39.062 0
rclavicle -1.65488e-014 -3.69739e-014 0
rhumerus -43.273 -4.86223 -84.2703
rradius 40.4763 0 0
rwrist 9.89469 0 0
rhand -23.7965 -22.476 0
rfingers 7.12502 0 0
rthumb 2.67393 -52.439 0
2
root 6.22698 16.842 -28.1487 9.03821 -2.63959 -2.94012
lfemur -19.9516 2.0458 -20.1854
ltibia 35.569 0 0
lfoot -38.9524 3.94663 0
ltoes 39.2097 0 0
rfemur -19.5025 0.589296 19.4416
rtibia 35.9709 0 0
rfoot -30.2752 -10.7366 0
rtoes 21.6834 0 0
lowerback -2.20391 3.60444 -5.00004
upperback -2.64095 4.91606 3.40337
thorax -2.23885 2.62268 6.3174
lowerneck -9.81588 -2.30124 1.96583
upperneck -1.36489 -3.23885 -1.59013
head 1.165 -1.65358 -0.955777
lclavicle -1.46185e-014 -3.58053e-014 0
lhumerus -41.6857 -10.9765 99.8614
lradius 34.5469 0 0
lwrist 2.22405 0 0
lhand -10.6474 9.53052 0
lfingers 7.12502 0 0
lthumb 15.3601 38.9398 0
rclavicle -1.46185e-014 -3.58053e-014 0
rhumerus -43.2641 -5.06527 -84.4101
rradius 40.3171 0 0
rwrist 10.0077 0 0
rhand -23.9432 -22.4002 0
rfingers 7.12502 0 0
rthumb 2.53227 -52.3641 0
3
root 6.21127 16.8476 -28.1587 9.0562 -2.73906 -2.82871
lfemur -19.5629 1.8058 -20.361
ltibia 35.2324 0 0
lfoot -39.2206 3.95627 0
ltoes 39.4375 0 0
rfemur -19.5222 0.945969 19.3638
rtibia 35.8989 0 0
rfoot -30.1722 -10.9785 0
rtoes 21.8768 0 0
lowerback -2.3539 3.54077 -4.95375
upperback -2.61437 4.83051 3.31266
thorax -2.11401 2.57597 6.20422
lowerneck -9.78625 -2.23682 1.9846
upperneck -1.35532 -3.1563 -1.52436
head 1.16434 -1.61097 -0.935507
lclavicle -1.27272e-014 -3.46088e-014 0
lhumerus -41.6483 -11.1335 99.8814
lradius 34.5953 0 0
lwrist 2.27988 0 0
lhand -10.6992 9.39925 0
lfingers 7.12502 0 0
lthumb 15.3103 38.8122 0
rclavicle -1.27272e-014 -3.46088e-014 0
rhumerus -43.2485 -5.25375 -84.5526
rradius 40.166 0 0
rwrist 10.1149 0 0
rhand -24.086 -22.3248 0
rfingers 7.12502 0 0
rthumb 2.39436 -52.2896 0
4
root 6.19599 16.853 -28.1677 9.0756 -2.82851 -2.72337
lfemur -19.2045 1.58218 -20.5223
ltibia 34.9168 0 0
lfoot -39.4597 3.96606 0
ltoes 39.6381 0 0
rfemur -19.5339 1.29034 19.2919
rtibia 35.8185 0 0
rfoot -30.0691 -11.2222 0
rtoes 22.0298 0 0
lowerback -2.50137 3.47872 -4.89913
upperback -2.58757 4.7469 3.22078
thorax -1.98956 2.53012 6.08522
lowerneck -9.75806 -2.17533 2.0044
upperneck -1.35043 -3.0777 -1.45666
head 1.16242 -1.57035 -0.914888
lclavicle -1.08751e-014 -3.33866e-014 0
lhumerus -41.6131 -11.2839 99.8914
lradius 34.6542 0 0
lwrist 2.3424 0 0
lhand -10.7502 9.26289 0
lfingers 7.12502 0 0
lthumb 15.2611 38.6794 0
rclavicle -1.08751e-014 -3.33866e-014 0
rhumerus -43.2265 -5.42804 -84.6974
rradius 40.0227 0 0
rwrist 10.2165 0 0
rhand -24.2249 -22.2499 0
rfingers 7.12502 0 0
rthumb 2.26021 -52.2155 0
5
root 6.18116 16.8581 -28.1759 9.09634 -2.9082 -2.62399
lfemur -18.8755 1.37453 -20.6699
ltibia 34.6218 0 0
lfoot -39.6703 3.97599 0
ltoes 39.8125 0 0
rfemur -19.5379 1.62252 19.2258
rtibia 35.7302 0 0
rfoot -29.9659 -11.4674 0
rtoes 22.1438 0 0
lowerback -2.64626 3.41828 -4.83656
upperback -2.56057 4.66524 3.12788
thorax -1.86561 2.48514 5.96071
lowerneck -9.73129 -2.11672 2.02518
upperneck -1.35007 -3.00297 -1.38715
head 1.15927 -1.5317 -0.893951
lclavicle -9.06262e-015 -3.21406e-014 0
lhumerus -41.5799 -11.4278 99.8919
lradius 34.7232 0 0
lwrist 2.4113 0 0
lhand -10.8004 9.12178 0
lfingers 7.12502 0 0
lthumb 15.2127 38.5418 0
rclavicle -9.06262e-015 -3.21406e-014 0
rhumerus -43.1984 -5.58848 -84.8444
rradius 39.8871 0 0
rwrist 10.3126 0 0
rhand -24.3599 -22.1755 0
rfingers 7.12502 0 0
rthumb 2.12979 -52.1419 0
6
root 6.16677 16.863 -28.1832 9.11835 -2.97843 -2.53045
lfemur -18.5751 1.18248 -20.804
ltibia 34.3469 0 0
lfoot -39.8534 3.98603 0
ltoes 39.9613 0 0
rfemur -19.5346 1.94264 19.1653
rtibia 35.6343 0 0
rfoot -29.8628 -11.7137 0
rtoes 22.2201 0 0
lowerback -2.78853 3.35945 -4.76639
upperback -2.53342 4.58554 3.03407
thorax -1.74225 2.44105 5.83104
lowerneck -9.70591 -2.06094 2.04687
upperneck -1.35405 -2.93205 -1.31598
head 1.15496 -1.49498 -0.872731
lclavicle -7.29008e-015 -3.08732e-014 0
lhumerus -41.5487 -11.5653 99.8832
lradius 34.8017 0 0
lwrist 2.48626 0 0
lhand -10.8498 8.97622 0
lfingers 7.12502 0 0
lthumb 15.1651 38.3997 0
rclavicle -7.29008e-015 -3.08732e-014 0
rhumerus -43.1644 -5.73544 -84.9933
rradius 39.7591 0 0
rwrist 10.4032 0 0
rhand -24.4911 -22.1017 0
rfingers 7.12502 0 0
rthumb 2.00311 -52.0688 0
7
root 6.15281 16.8675 -28.1897 9.14155 -3.03948 -2.44261
lfemur -18.3027 1.00563 -20.9251
ltibia 34.0915 0 0
lfoot -40.0098 3.99618 0
ltoes 40.0855 0 0
rfemur -19.5242 2.25083 19.1103
rtibia 35.5312 0 0
rfoot -29.7599 -11.961 0
rtoes 22.2601 0 0
lowerback -2.92813 3.30223 -4.68899
upperback -2.50615 4.50781 2.9395
thorax -1.61959 2.39785 5.69653
lowerneck -9.6819 -2.00794 2.06942
upperneck -1.36222 -2.86487 -1.24328
head 1.14951 -1.46015 -0.851258
lclavicle -5.55781e-015 -2.95864e-014 0
lhumerus -41.5195 -11.6964 99.8656
lradius 34.8893 0 0
lwrist 2.56699 0 0
lhand -10.8985 8.82654 0
lfingers 7.12502 0 0
lthumb 15.1182 38.2535 0
rclavicle -5.55781e-015 -2.95864e-014 0
rhumerus -43.1248 -5.86928 -85.1439
rradius 39.6386 0 0
rwrist 10.4886 0 0
rhand -24.6184 -22.0285 0
rfingers 7.12502 0 0
rthumb 1.88014 -51.9964 0
8
root 6.13929 16.8719 -28.1953 9.16588 -3.09163 -2.36035
lfemur -18.0573 0.843595 -21.0335
ltibia 33.8553 0 0
lfoot -40.1404 4.00643 0
ltoes 40.1858 0 0
rfemur -19.507 2.54721 19.0607
rtibia 35.4213 0 0
rfoot -29.6572 -12.2088 0
rtoes 22.2651 0 0
lowerback -3.06501 3.24662 -4.60471
upperback -2.47879 4.43206 2.84428
thorax -1.49774 2.35556 5.55751
lowerneck -9.65923 -1.95767 2.09277
upperneck -1.37441 -2.80135 -1.16918
head 1.143 -1.42718 -0.829566
lclavicle -3.86612e-015 -2.82823e-014 0
lhumerus -41.4923 -11.8214 99.8396
lradius 34.9857 0 0
lwrist 2.65317 0 0
lhand -10.9463 8.67305 0
lfingers 7.12502 0 0
lthumb 15.0722 38.1033 0
rclavicle -3.86612e-015 -2.82823e-014 0
rhumerus -43.0798 -5.99035 -85.296
rradius 39.5252 0 0
rwrist 10.5687 0 0
rhand -24.7418 -21.956 0
rfingers 7.12502 0 0
rthumb 1.76088 -51.9246 0
9
root 6.1262 16.8759 -28.2002 9.19126 -3.13518 -2.28356
lfemur -17.8383 0.695976 -21.1296
ltibia 33.6377 0 0
lfoot -40.2461 4.01674 0
ltoes 40.2631 0 0
rfemur -19.4833 2.83191 19.0162
rtibia 35.3051 0 0
rfoot -29.555 -12.4568 0
rtoes 22.2365 0 0
lowerback -3.19913 3.19262 -4.51391
upperback -2.45138 4.35829 2.74857
thorax -1.37681 2.31418 5.41431
lowerneck -9.63787 -1.91009 2.11687
upperneck -1.39044 -2.74143 -1.09383
head 1.13545 -1.39603 -0.807689
lclavicle -2.21534e-015 -2.6963e-014 0
lhumerus -41.4669 -11.9403 99.8055
lradius 35.0903 0 0
lwrist 2.7445 0 0
lhand -10.9932 8.51608 0
lfingers 7.12502 0 0
lthumb 15.027 37.9497 0
rclavicle -2.21534e-015 -2.6963e-014 0
rhumerus -43.0297 -6.09901 -85.4493
rradius 39.419 0 0
rwrist 10.6437 0 0
rhand -24.8615 -21.8842 0
rfingers 7.12502 0 0
rthumb 1.64533 -51.8535 0
